<mxfile host="Electron" agent="Mozilla/5.0 (Windows NT 10.0; Win64; x64) AppleWebKit/537.36 (KHTML, like Gecko) draw.io/25.0.2 Chrome/128.0.6613.186 Electron/32.2.5 Safari/537.36" version="25.0.2">
  <diagram name="PÃ¡gina-1" id="U3k0QHNDrNqYpb96N1Zb">
    <mxGraphModel dx="1434" dy="836" grid="1" gridSize="10" guides="1" tooltips="1" connect="1" arrows="1" fold="1" page="1" pageScale="1" pageWidth="827" pageHeight="1169" math="0" shadow="0">
      <root>
        <mxCell id="0" />
        <mxCell id="1" parent="0" />
        <mxCell id="2uzys4ehJ_0eV0x3jUp4-1" value="&lt;div&gt;Federate Members Mangement&lt;/div&gt;&lt;div&gt;&lt;br&gt;&lt;/div&gt;&lt;div&gt;&lt;br&gt;&lt;/div&gt;&lt;div&gt;&lt;br&gt;&lt;/div&gt;&lt;div&gt;&lt;br&gt;&lt;/div&gt;&lt;div&gt;&lt;br&gt;&lt;/div&gt;&lt;div&gt;&lt;br&gt;&lt;/div&gt;&lt;div&gt;&lt;br&gt;&lt;/div&gt;&lt;div&gt;&lt;br&gt;&lt;/div&gt;&lt;div&gt;&lt;br&gt;&lt;/div&gt;&lt;div&gt;&lt;br&gt;&lt;/div&gt;&lt;div&gt;&lt;br&gt;&lt;/div&gt;&lt;div&gt;&lt;br&gt;&lt;/div&gt;&lt;div&gt;&lt;br&gt;&lt;/div&gt;&lt;div&gt;&lt;br&gt;&lt;/div&gt;&lt;div&gt;&lt;br&gt;&lt;/div&gt;&lt;div&gt;&lt;br&gt;&lt;/div&gt;&lt;div&gt;&lt;br&gt;&lt;/div&gt;&lt;div&gt;&lt;br&gt;&lt;/div&gt;&lt;div&gt;&lt;br&gt;&lt;/div&gt;&lt;div&gt;&lt;br&gt;&lt;/div&gt;&lt;div&gt;&lt;br&gt;&lt;/div&gt;&lt;div&gt;&lt;br&gt;&lt;/div&gt;&lt;div&gt;&lt;br&gt;&lt;/div&gt;&lt;div&gt;&lt;br&gt;&lt;/div&gt;&lt;div&gt;&lt;br&gt;&lt;/div&gt;&lt;div&gt;&lt;br&gt;&lt;/div&gt;&lt;div&gt;&lt;br&gt;&lt;/div&gt;&lt;div&gt;&lt;br&gt;&lt;/div&gt;&lt;div&gt;&lt;br&gt;&lt;/div&gt;&lt;div&gt;&lt;br&gt;&lt;/div&gt;&lt;div&gt;&lt;br&gt;&lt;/div&gt;&lt;div&gt;&lt;br&gt;&lt;/div&gt;&lt;div&gt;&lt;br&gt;&lt;/div&gt;&lt;div&gt;&lt;br&gt;&lt;/div&gt;&lt;div&gt;&lt;br&gt;&lt;/div&gt;&lt;div&gt;&lt;br&gt;&lt;/div&gt;&lt;div&gt;&lt;br&gt;&lt;/div&gt;&lt;div&gt;&lt;br&gt;&lt;/div&gt;&lt;div&gt;&lt;br&gt;&lt;/div&gt;&lt;div&gt;&lt;br&gt;&lt;/div&gt;&lt;div&gt;&lt;br&gt;&lt;/div&gt;&lt;div&gt;&lt;br&gt;&lt;/div&gt;&lt;div&gt;&lt;br&gt;&lt;/div&gt;&lt;div&gt;&lt;br&gt;&lt;/div&gt;&lt;div&gt;&lt;br&gt;&lt;/div&gt;&lt;div&gt;&lt;br&gt;&lt;/div&gt;&lt;div&gt;&lt;br&gt;&lt;/div&gt;&lt;div&gt;&lt;br&gt;&lt;/div&gt;&lt;div&gt;&lt;br&gt;&lt;/div&gt;&lt;div&gt;&lt;br&gt;&lt;/div&gt;&lt;div&gt;&lt;br&gt;&lt;/div&gt;&lt;div&gt;&lt;br&gt;&lt;/div&gt;&lt;div&gt;&lt;br&gt;&lt;/div&gt;" style="rounded=1;whiteSpace=wrap;html=1;" parent="1" vertex="1">
          <mxGeometry x="260" y="50" width="700" height="810" as="geometry" />
        </mxCell>
        <mxCell id="2uzys4ehJ_0eV0x3jUp4-2" value="President" style="shape=umlActor;verticalLabelPosition=bottom;verticalAlign=top;html=1;outlineConnect=0;" parent="1" vertex="1">
          <mxGeometry x="100" y="100" width="70" height="110" as="geometry" />
        </mxCell>
        <mxCell id="2uzys4ehJ_0eV0x3jUp4-5" value="Member" style="shape=umlActor;verticalLabelPosition=bottom;verticalAlign=top;html=1;outlineConnect=0;" parent="1" vertex="1">
          <mxGeometry x="100" y="680" width="70" height="110" as="geometry" />
        </mxCell>
        <mxCell id="2uzys4ehJ_0eV0x3jUp4-9" value="Secretary" style="shape=umlActor;verticalLabelPosition=bottom;verticalAlign=top;html=1;outlineConnect=0;" parent="1" vertex="1">
          <mxGeometry x="100" y="300" width="70" height="110" as="geometry" />
        </mxCell>
        <mxCell id="2uzys4ehJ_0eV0x3jUp4-18" value="ChangeUserRoles" style="ellipse;whiteSpace=wrap;html=1;" parent="1" vertex="1">
          <mxGeometry x="380" y="260" width="120" height="80" as="geometry" />
        </mxCell>
        <mxCell id="2uzys4ehJ_0eV0x3jUp4-25" value="NotifyEmail" style="ellipse;whiteSpace=wrap;html=1;" parent="1" vertex="1">
          <mxGeometry x="680" y="190" width="120" height="50" as="geometry" />
        </mxCell>
        <mxCell id="2uzys4ehJ_0eV0x3jUp4-26" value="" style="endArrow=none;html=1;rounded=0;dashed=1;startArrow=open;startFill=0;" parent="1" source="2uzys4ehJ_0eV0x3jUp4-25" target="2uzys4ehJ_0eV0x3jUp4-39" edge="1">
          <mxGeometry width="50" height="50" relative="1" as="geometry">
            <mxPoint x="590" y="441" as="sourcePoint" />
            <mxPoint x="480" y="380" as="targetPoint" />
          </mxGeometry>
        </mxCell>
        <mxCell id="2uzys4ehJ_0eV0x3jUp4-27" value="&amp;lt;&amp;lt;extend&amp;gt;&amp;gt;" style="edgeLabel;html=1;align=center;verticalAlign=middle;resizable=0;points=[];" parent="2uzys4ehJ_0eV0x3jUp4-26" vertex="1" connectable="0">
          <mxGeometry x="0.1467" y="1" relative="1" as="geometry">
            <mxPoint x="22" y="-12" as="offset" />
          </mxGeometry>
        </mxCell>
        <mxCell id="2uzys4ehJ_0eV0x3jUp4-32" value="" style="endArrow=block;html=1;rounded=0;endFill=0;" parent="1" source="2uzys4ehJ_0eV0x3jUp4-5" target="2uzys4ehJ_0eV0x3jUp4-34" edge="1">
          <mxGeometry width="50" height="50" relative="1" as="geometry">
            <mxPoint x="560" y="420" as="sourcePoint" />
            <mxPoint x="610" y="370" as="targetPoint" />
          </mxGeometry>
        </mxCell>
        <mxCell id="2uzys4ehJ_0eV0x3jUp4-33" value="" style="endArrow=block;html=1;rounded=0;endFill=0;" parent="1" source="2uzys4ehJ_0eV0x3jUp4-9" target="2uzys4ehJ_0eV0x3jUp4-2" edge="1">
          <mxGeometry width="50" height="50" relative="1" as="geometry">
            <mxPoint x="210" y="320" as="sourcePoint" />
            <mxPoint x="216" y="170" as="targetPoint" />
          </mxGeometry>
        </mxCell>
        <mxCell id="2uzys4ehJ_0eV0x3jUp4-34" value="Treasurer" style="shape=umlActor;verticalLabelPosition=bottom;verticalAlign=top;html=1;outlineConnect=0;" parent="1" vertex="1">
          <mxGeometry x="100" y="490" width="70" height="110" as="geometry" />
        </mxCell>
        <mxCell id="2uzys4ehJ_0eV0x3jUp4-35" value="" style="endArrow=block;html=1;rounded=0;endFill=0;" parent="1" source="2uzys4ehJ_0eV0x3jUp4-34" target="2uzys4ehJ_0eV0x3jUp4-9" edge="1">
          <mxGeometry width="50" height="50" relative="1" as="geometry">
            <mxPoint x="115" y="595" as="sourcePoint" />
            <mxPoint x="95" y="560" as="targetPoint" />
          </mxGeometry>
        </mxCell>
        <mxCell id="2uzys4ehJ_0eV0x3jUp4-38" value="AcceptUserAsMember" style="ellipse;whiteSpace=wrap;html=1;" parent="1" vertex="1">
          <mxGeometry x="350" y="80" width="150" height="50" as="geometry" />
        </mxCell>
        <mxCell id="2uzys4ehJ_0eV0x3jUp4-39" value="RemoveUser" style="ellipse;whiteSpace=wrap;html=1;" parent="1" vertex="1">
          <mxGeometry x="350" y="150" width="150" height="50" as="geometry" />
        </mxCell>
        <mxCell id="2uzys4ehJ_0eV0x3jUp4-42" value="" style="endArrow=none;html=1;rounded=0;" parent="1" source="2uzys4ehJ_0eV0x3jUp4-2" target="2uzys4ehJ_0eV0x3jUp4-39" edge="1">
          <mxGeometry width="50" height="50" relative="1" as="geometry">
            <mxPoint x="560" y="420" as="sourcePoint" />
            <mxPoint x="610" y="370" as="targetPoint" />
          </mxGeometry>
        </mxCell>
        <mxCell id="2uzys4ehJ_0eV0x3jUp4-43" value="" style="endArrow=none;html=1;rounded=0;" parent="1" source="2uzys4ehJ_0eV0x3jUp4-2" target="2uzys4ehJ_0eV0x3jUp4-38" edge="1">
          <mxGeometry width="50" height="50" relative="1" as="geometry">
            <mxPoint x="145" y="365" as="sourcePoint" />
            <mxPoint x="388" y="264" as="targetPoint" />
          </mxGeometry>
        </mxCell>
        <mxCell id="2uzys4ehJ_0eV0x3jUp4-44" value="GetOwnUserinfo" style="ellipse;whiteSpace=wrap;html=1;" parent="1" vertex="1">
          <mxGeometry x="390" y="695" width="120" height="80" as="geometry" />
        </mxCell>
        <mxCell id="2uzys4ehJ_0eV0x3jUp4-45" value="" style="endArrow=none;html=1;rounded=0;exitX=0.5;exitY=0.5;exitDx=0;exitDy=0;exitPerimeter=0;" parent="1" source="2uzys4ehJ_0eV0x3jUp4-5" target="2uzys4ehJ_0eV0x3jUp4-44" edge="1">
          <mxGeometry width="50" height="50" relative="1" as="geometry">
            <mxPoint x="560" y="420" as="sourcePoint" />
            <mxPoint x="610" y="370" as="targetPoint" />
          </mxGeometry>
        </mxCell>
        <mxCell id="2uzys4ehJ_0eV0x3jUp4-48" value="" style="endArrow=none;html=1;rounded=0;exitX=0.5;exitY=0.5;exitDx=0;exitDy=0;exitPerimeter=0;" parent="1" source="2uzys4ehJ_0eV0x3jUp4-9" target="2uzys4ehJ_0eV0x3jUp4-18" edge="1">
          <mxGeometry width="50" height="50" relative="1" as="geometry">
            <mxPoint x="145" y="365" as="sourcePoint" />
            <mxPoint x="383" y="283" as="targetPoint" />
          </mxGeometry>
        </mxCell>
        <mxCell id="xjftnrro8x5Z-K0GjX4Z-2" value="ChangeKindOfMember" style="ellipse;whiteSpace=wrap;html=1;" vertex="1" parent="1">
          <mxGeometry x="380" y="370" width="120" height="80" as="geometry" />
        </mxCell>
        <mxCell id="xjftnrro8x5Z-K0GjX4Z-3" value="" style="endArrow=none;html=1;rounded=0;" edge="1" parent="1" source="2uzys4ehJ_0eV0x3jUp4-9" target="xjftnrro8x5Z-K0GjX4Z-2">
          <mxGeometry width="50" height="50" relative="1" as="geometry">
            <mxPoint x="145" y="365" as="sourcePoint" />
            <mxPoint x="392" y="320" as="targetPoint" />
          </mxGeometry>
        </mxCell>
        <mxCell id="xjftnrro8x5Z-K0GjX4Z-4" value="GetUserInfo" style="ellipse;whiteSpace=wrap;html=1;" vertex="1" parent="1">
          <mxGeometry x="390" y="520" width="120" height="80" as="geometry" />
        </mxCell>
        <mxCell id="xjftnrro8x5Z-K0GjX4Z-5" value="" style="endArrow=none;html=1;rounded=0;" edge="1" parent="1" source="2uzys4ehJ_0eV0x3jUp4-34" target="xjftnrro8x5Z-K0GjX4Z-4">
          <mxGeometry width="50" height="50" relative="1" as="geometry">
            <mxPoint x="180" y="371" as="sourcePoint" />
            <mxPoint x="392" y="410" as="targetPoint" />
          </mxGeometry>
        </mxCell>
        <mxCell id="xjftnrro8x5Z-K0GjX4Z-6" value="" style="endArrow=none;html=1;rounded=0;dashed=1;startArrow=open;startFill=0;" edge="1" parent="1" source="2uzys4ehJ_0eV0x3jUp4-25" target="2uzys4ehJ_0eV0x3jUp4-38">
          <mxGeometry width="50" height="50" relative="1" as="geometry">
            <mxPoint x="693" y="218" as="sourcePoint" />
            <mxPoint x="505" y="194" as="targetPoint" />
          </mxGeometry>
        </mxCell>
        <mxCell id="xjftnrro8x5Z-K0GjX4Z-7" value="&amp;lt;&amp;lt;extend&amp;gt;&amp;gt;" style="edgeLabel;html=1;align=center;verticalAlign=middle;resizable=0;points=[];" vertex="1" connectable="0" parent="xjftnrro8x5Z-K0GjX4Z-6">
          <mxGeometry x="0.1467" y="1" relative="1" as="geometry">
            <mxPoint x="22" y="-12" as="offset" />
          </mxGeometry>
        </mxCell>
      </root>
    </mxGraphModel>
  </diagram>
</mxfile>
